<?xml version="1.0" encoding="iso-8859-1"?>
<!-- Generator: Adobe Illustrator 19.1.0, SVG Export Plug-In . SVG Version: 6.00 Build 0)  -->
<svg version="1.1" id="Capa_1" xmlns="http://www.w3.org/2000/svg" xmlns:xlink="http://www.w3.org/1999/xlink" x="0px" y="0px"
	 viewBox="0 0 63 63" style="enable-background:new 0 0 63 63;" xml:space="preserve">
<g>
	<g>
		<g id="group-25svg">
			<path id="path-1_18_" d="M20.137,63c-0.384,0-0.768-0.146-1.061-0.439c-0.585-0.586-0.585-1.536,0-2.122L48.016,31.5
				L19.076,2.561c-0.585-0.586-0.585-1.536,0-2.122c0.586-0.585,1.536-0.585,2.122,0l29.286,29.287c0.978,0.978,0.978,2.571,0,3.549
				L21.198,62.561C20.905,62.854,20.521,63,20.137,63z"/>
			<path id="path-2_16_" d="M13.282,56.212c-0.384,0-0.768-0.147-1.061-0.439c-0.586-0.586-0.586-1.536,0-2.122L34.372,31.5
				L12.221,9.35c-0.586-0.586-0.586-1.536,0-2.121c0.586-0.586,1.535-0.586,2.121,0l23.212,23.21
				c0.281,0.282,0.439,0.664,0.439,1.061c0,0.397-0.158,0.779-0.439,1.061L14.342,55.773C14.049,56.065,13.665,56.212,13.282,56.212
				z"/>
		</g>
	</g>
	<g>
	</g>
	<g>
	</g>
	<g>
	</g>
	<g>
	</g>
	<g>
	</g>
	<g>
	</g>
	<g>
	</g>
	<g>
	</g>
	<g>
	</g>
	<g>
	</g>
	<g>
	</g>
	<g>
	</g>
	<g>
	</g>
	<g>
	</g>
	<g>
	</g>
</g>
<g>
</g>
<g>
</g>
<g>
</g>
<g>
</g>
<g>
</g>
<g>
</g>
<g>
</g>
<g>
</g>
<g>
</g>
<g>
</g>
<g>
</g>
<g>
</g>
<g>
</g>
<g>
</g>
<g>
</g>
</svg>
