<?xml version="1.0" encoding="iso-8859-1"?>
<!-- Generator: Adobe Illustrator 19.1.0, SVG Export Plug-In . SVG Version: 6.00 Build 0)  -->
<svg version="1.1" id="Capa_1" xmlns="http://www.w3.org/2000/svg" xmlns:xlink="http://www.w3.org/1999/xlink" x="0px" y="0px" viewBox="0 0 63 63" style="enable-background:new 0 0 63 63;" xml:space="preserve">
	<g>
		<g>
			<g id="group-24svg">
				<path id="path-1_17_" d="M42.862,63c-0.384,0-0.767-0.146-1.06-0.439L12.517,33.275c-0.475-0.473-0.736-1.104-0.736-1.774
				c0-0.671,0.261-1.302,0.736-1.775L41.802,0.439c0.586-0.585,1.535-0.585,2.121,0c0.586,0.586,0.586,1.536,0,2.122l-28.939,28.94
				l28.939,28.938c0.586,0.586,0.586,1.536,0,2.122C43.63,62.854,43.246,63,42.862,63z" />
				<path id="path-2_15_" d="M49.719,56.212c-0.384,0-0.768-0.147-1.061-0.439L25.446,32.561c-0.281-0.282-0.439-0.664-0.439-1.061
				c0-0.397,0.158-0.779,0.439-1.061l23.212-23.21c0.586-0.586,1.535-0.586,2.121,0c0.586,0.585,0.586,1.535,0,2.121L28.628,31.5
				l22.151,22.151c0.586,0.586,0.586,1.536,0,2.122C50.486,56.065,50.102,56.212,49.719,56.212z" />
			</g>
		</g>
		<g></g>
		<g></g>
		<g></g>
		<g></g>
		<g></g>
		<g></g>
		<g></g>
		<g></g>
		<g></g>
		<g></g>
		<g></g>
		<g></g>
		<g></g>
		<g></g>
		<g></g>
	</g>
	<g></g>
	<g></g>
	<g></g>
	<g></g>
	<g></g>
	<g></g>
	<g></g>
	<g></g>
	<g></g>
	<g></g>
	<g></g>
	<g></g>
	<g></g>
	<g></g>
	<g></g>
</svg>